<?xml version="1.0" standalone="no"?>
<!DOCTYPE svg PUBLIC "-//W3C//DTD SVG 20010904//EN"
 "http://www.w3.org/TR/2001/REC-SVG-20010904/DTD/svg10.dtd">
<svg version="1.0" xmlns="http://www.w3.org/2000/svg"
 width="700.000000pt" height="700.000000pt" viewBox="0 0 700.000000 700.000000"
 preserveAspectRatio="xMidYMid meet">
<metadata>
Created by potrace 1.14, written by Peter Selinger 2001-2017
</metadata>
<g transform="translate(0.000000,700.000000) scale(0.100000,-0.100000)"
fill="#000000" stroke="none">
<path d="M3185 6989 c-38 -5 -95 -11 -125 -14 -31 -3 -67 -8 -80 -10 -14 -3
-41 -8 -60 -11 -375 -61 -774 -199 -1109 -386 -58 -32 -106 -58 -108 -58 -13
0 -303 -205 -402 -284 -179 -144 -430 -396 -547 -551 -48 -63 -49 -64 -77
-100 -51 -64 -170 -250 -231 -359 -200 -356 -327 -716 -401 -1131 -3 -16 -8
-52 -11 -80 -3 -27 -7 -55 -9 -62 -27 -80 -27 -719 -1 -883 2 -14 8 -47 12
-75 4 -27 8 -54 10 -60 1 -5 5 -28 8 -50 54 -350 221 -800 427 -1148 89 -149
213 -330 295 -427 352 -418 704 -700 1159 -929 236 -118 565 -237 775 -280
136 -28 199 -40 235 -45 22 -4 54 -9 70 -11 30 -5 56 -8 195 -21 148 -15 579
-8 690 10 14 3 45 7 70 10 95 12 252 41 315 58 22 5 48 12 57 13 99 20 375
112 528 177 208 89 565 289 664 373 14 11 52 40 87 65 34 25 70 52 78 60 9 9
45 40 81 70 79 66 284 270 365 364 95 109 325 420 325 439 0 2 24 44 54 94 66
109 174 330 231 473 36 88 115 333 130 400 2 8 11 45 19 82 16 67 45 214 50
253 2 11 6 40 10 65 34 228 41 699 12 870 -3 14 -7 50 -11 81 -5 54 -8 71 -20
129 -2 14 -7 41 -10 60 -10 63 -46 213 -71 297 -14 45 -27 90 -29 100 -15 72
-127 349 -202 498 -120 239 -303 523 -429 665 -12 14 -52 59 -88 101 -70 82
-235 246 -326 324 -30 26 -68 59 -85 73 -172 150 -559 387 -795 487 -36 15
-79 34 -95 41 -86 37 -344 123 -415 139 -8 1 -33 8 -55 13 -22 6 -51 13 -65
16 -251 50 -251 50 -355 61 -33 4 -71 9 -85 12 -43 9 -582 10 -655 2z"/>
</g>
</svg>
